# xmcd
# Track frame offsets:
# 225
# 16023
# 33088
# 46922
# 62536
# 76768
# 96036
# 110282
# 126286
# 142691
# 154954
# 169226
# 182867
# 199208
# 219484
#
# Disc length: 3106 seconds
# Revision: 0
# Processed by: cddbd v1.4PL0 Copyright (c) Steve Scherf et al.
# Submitted via: VisiTrax 2.9.5.180 - For more info visit www.synapsa.com
#
DISCID=bc0c1f0f
DTITLE=Westcoast - Old hearts
DYEAR=1900
DGENRE=
TTITLE0=I feel a heartache
TTITLE1=Hungry eyes
TTITLE2=You lied to me
TTITLE3=Two shades of blue
TTITLE4=Why, why, bye, bye
TTITLE5=Old hearts
TTITLE6=Who did you call darlin' to last night
TTITLE7=Once an angel
TTITLE8=Neon bible
TTITLE9=O'l lonesome
TTITLE10=Let's hate ourselves in the morning
TTITLE11=Take the smile from your face
TTITLE12=I feel bad
TTITLE13=You're a million miles away
TTITLE14=Texas boogie
EXTD=
EXTT0=
EXTT1=
EXTT2=
EXTT3=
EXTT4=
EXTT5=
EXTT6=
EXTT7=
EXTT8=
EXTT9=
EXTT10=
EXTT11=
EXTT12=
EXTT13=
EXTT14=
PLAYORDER=
